<mxfile host="app.diagrams.net" modified="2022-10-04T14:40:10.423Z" agent="5.0 (Macintosh; Intel Mac OS X 10_15_7) AppleWebKit/537.36 (KHTML, like Gecko) Chrome/105.0.0.0 Safari/537.36" etag="Y6c7YrzGIlyNFsLZzvVV" version="20.2.7" type="github">
  <diagram id="C5RBs43oDa-KdzZeNtuy" name="Page-1">
    <mxGraphModel dx="2252" dy="552" grid="1" gridSize="10" guides="1" tooltips="1" connect="1" arrows="1" fold="1" page="1" pageScale="1" pageWidth="827" pageHeight="1169" math="0" shadow="0">
      <root>
        <mxCell id="WIyWlLk6GJQsqaUBKTNV-0" />
        <mxCell id="WIyWlLk6GJQsqaUBKTNV-1" parent="WIyWlLk6GJQsqaUBKTNV-0" />
        <mxCell id="r0m9Uo_pUaAPdZbnrWWi-3" style="edgeStyle=orthogonalEdgeStyle;rounded=0;orthogonalLoop=1;jettySize=auto;html=1;" edge="1" parent="WIyWlLk6GJQsqaUBKTNV-1" source="r0m9Uo_pUaAPdZbnrWWi-0" target="r0m9Uo_pUaAPdZbnrWWi-4">
          <mxGeometry relative="1" as="geometry">
            <mxPoint x="418" y="210" as="targetPoint" />
          </mxGeometry>
        </mxCell>
        <mxCell id="r0m9Uo_pUaAPdZbnrWWi-0" value="Accedere a netflix:&lt;br&gt;Dati: giorni della settimana" style="ellipse;whiteSpace=wrap;html=1;" vertex="1" parent="WIyWlLk6GJQsqaUBKTNV-1">
          <mxGeometry x="320" y="30" width="196" height="110" as="geometry" />
        </mxCell>
        <mxCell id="r0m9Uo_pUaAPdZbnrWWi-5" style="edgeStyle=orthogonalEdgeStyle;rounded=0;orthogonalLoop=1;jettySize=auto;html=1;" edge="1" parent="WIyWlLk6GJQsqaUBKTNV-1" source="r0m9Uo_pUaAPdZbnrWWi-4" target="r0m9Uo_pUaAPdZbnrWWi-8">
          <mxGeometry relative="1" as="geometry">
            <mxPoint x="230" y="220" as="targetPoint" />
            <Array as="points">
              <mxPoint x="230" y="220" />
            </Array>
          </mxGeometry>
        </mxCell>
        <mxCell id="r0m9Uo_pUaAPdZbnrWWi-25" style="edgeStyle=orthogonalEdgeStyle;rounded=0;orthogonalLoop=1;jettySize=auto;html=1;entryX=0.5;entryY=0;entryDx=0;entryDy=0;" edge="1" parent="WIyWlLk6GJQsqaUBKTNV-1" source="r0m9Uo_pUaAPdZbnrWWi-4" target="r0m9Uo_pUaAPdZbnrWWi-28">
          <mxGeometry relative="1" as="geometry">
            <mxPoint x="660" y="219.9999999999999" as="targetPoint" />
            <Array as="points">
              <mxPoint x="610" y="220" />
            </Array>
          </mxGeometry>
        </mxCell>
        <mxCell id="r0m9Uo_pUaAPdZbnrWWi-4" value="weekend?" style="rhombus;whiteSpace=wrap;html=1;" vertex="1" parent="WIyWlLk6GJQsqaUBKTNV-1">
          <mxGeometry x="308" y="180" width="220" height="80" as="geometry" />
        </mxCell>
        <mxCell id="r0m9Uo_pUaAPdZbnrWWi-7" value="Si" style="text;html=1;strokeColor=none;fillColor=none;align=center;verticalAlign=middle;whiteSpace=wrap;rounded=0;" vertex="1" parent="WIyWlLk6GJQsqaUBKTNV-1">
          <mxGeometry x="248" y="190" width="60" height="30" as="geometry" />
        </mxCell>
        <mxCell id="r0m9Uo_pUaAPdZbnrWWi-9" style="edgeStyle=orthogonalEdgeStyle;rounded=0;orthogonalLoop=1;jettySize=auto;html=1;" edge="1" parent="WIyWlLk6GJQsqaUBKTNV-1" source="r0m9Uo_pUaAPdZbnrWWi-8" target="r0m9Uo_pUaAPdZbnrWWi-10">
          <mxGeometry relative="1" as="geometry">
            <mxPoint x="230" y="379.9999999999999" as="targetPoint" />
          </mxGeometry>
        </mxCell>
        <mxCell id="r0m9Uo_pUaAPdZbnrWWi-8" value="Serie tv" style="rounded=1;whiteSpace=wrap;html=1;" vertex="1" parent="WIyWlLk6GJQsqaUBKTNV-1">
          <mxGeometry x="170" y="270" width="120" height="60" as="geometry" />
        </mxCell>
        <mxCell id="r0m9Uo_pUaAPdZbnrWWi-11" style="edgeStyle=orthogonalEdgeStyle;rounded=0;orthogonalLoop=1;jettySize=auto;html=1;" edge="1" parent="WIyWlLk6GJQsqaUBKTNV-1" source="r0m9Uo_pUaAPdZbnrWWi-10">
          <mxGeometry relative="1" as="geometry">
            <mxPoint x="90" y="500" as="targetPoint" />
            <Array as="points">
              <mxPoint x="90" y="420" />
            </Array>
          </mxGeometry>
        </mxCell>
        <mxCell id="r0m9Uo_pUaAPdZbnrWWi-20" style="edgeStyle=orthogonalEdgeStyle;rounded=0;orthogonalLoop=1;jettySize=auto;html=1;" edge="1" parent="WIyWlLk6GJQsqaUBKTNV-1" source="r0m9Uo_pUaAPdZbnrWWi-10">
          <mxGeometry relative="1" as="geometry">
            <mxPoint x="400" y="510" as="targetPoint" />
            <Array as="points">
              <mxPoint x="400" y="420" />
              <mxPoint x="400" y="510" />
            </Array>
          </mxGeometry>
        </mxCell>
        <mxCell id="r0m9Uo_pUaAPdZbnrWWi-10" value="Mattina/Pome" style="rhombus;whiteSpace=wrap;html=1;" vertex="1" parent="WIyWlLk6GJQsqaUBKTNV-1">
          <mxGeometry x="150" y="380" width="160" height="80" as="geometry" />
        </mxCell>
        <mxCell id="r0m9Uo_pUaAPdZbnrWWi-12" value="No" style="text;html=1;strokeColor=none;fillColor=none;align=center;verticalAlign=middle;whiteSpace=wrap;rounded=0;" vertex="1" parent="WIyWlLk6GJQsqaUBKTNV-1">
          <mxGeometry x="90" y="390" width="60" height="30" as="geometry" />
        </mxCell>
        <mxCell id="r0m9Uo_pUaAPdZbnrWWi-16" style="edgeStyle=orthogonalEdgeStyle;rounded=0;orthogonalLoop=1;jettySize=auto;html=1;" edge="1" parent="WIyWlLk6GJQsqaUBKTNV-1" source="r0m9Uo_pUaAPdZbnrWWi-13">
          <mxGeometry relative="1" as="geometry">
            <mxPoint x="10" y="595" as="targetPoint" />
            <Array as="points">
              <mxPoint x="10" y="545" />
            </Array>
          </mxGeometry>
        </mxCell>
        <mxCell id="r0m9Uo_pUaAPdZbnrWWi-19" style="edgeStyle=orthogonalEdgeStyle;rounded=0;orthogonalLoop=1;jettySize=auto;html=1;" edge="1" parent="WIyWlLk6GJQsqaUBKTNV-1" source="r0m9Uo_pUaAPdZbnrWWi-13">
          <mxGeometry relative="1" as="geometry">
            <mxPoint x="330" y="545" as="targetPoint" />
          </mxGeometry>
        </mxCell>
        <mxCell id="r0m9Uo_pUaAPdZbnrWWi-13" value="Horror" style="rhombus;whiteSpace=wrap;html=1;" vertex="1" parent="WIyWlLk6GJQsqaUBKTNV-1">
          <mxGeometry x="50" y="505" width="80" height="80" as="geometry" />
        </mxCell>
        <mxCell id="r0m9Uo_pUaAPdZbnrWWi-18" value="No" style="text;html=1;strokeColor=none;fillColor=none;align=center;verticalAlign=middle;whiteSpace=wrap;rounded=0;" vertex="1" parent="WIyWlLk6GJQsqaUBKTNV-1">
          <mxGeometry x="200" y="510" width="60" height="30" as="geometry" />
        </mxCell>
        <mxCell id="r0m9Uo_pUaAPdZbnrWWi-21" value="Si" style="text;html=1;strokeColor=none;fillColor=none;align=center;verticalAlign=middle;whiteSpace=wrap;rounded=0;" vertex="1" parent="WIyWlLk6GJQsqaUBKTNV-1">
          <mxGeometry x="330" y="390" width="60" height="30" as="geometry" />
        </mxCell>
        <mxCell id="r0m9Uo_pUaAPdZbnrWWi-22" value="Genere libero" style="rounded=1;whiteSpace=wrap;html=1;" vertex="1" parent="WIyWlLk6GJQsqaUBKTNV-1">
          <mxGeometry x="340" y="520" width="120" height="60" as="geometry" />
        </mxCell>
        <mxCell id="r0m9Uo_pUaAPdZbnrWWi-23" value="Si" style="text;html=1;strokeColor=none;fillColor=none;align=center;verticalAlign=middle;whiteSpace=wrap;rounded=0;" vertex="1" parent="WIyWlLk6GJQsqaUBKTNV-1">
          <mxGeometry y="520" width="60" height="30" as="geometry" />
        </mxCell>
        <mxCell id="r0m9Uo_pUaAPdZbnrWWi-24" value="Guardo un Horror" style="rounded=1;whiteSpace=wrap;html=1;" vertex="1" parent="WIyWlLk6GJQsqaUBKTNV-1">
          <mxGeometry x="-50" y="600" width="120" height="60" as="geometry" />
        </mxCell>
        <mxCell id="r0m9Uo_pUaAPdZbnrWWi-27" value="No" style="text;html=1;strokeColor=none;fillColor=none;align=center;verticalAlign=middle;whiteSpace=wrap;rounded=0;" vertex="1" parent="WIyWlLk6GJQsqaUBKTNV-1">
          <mxGeometry x="540" y="190" width="60" height="30" as="geometry" />
        </mxCell>
        <mxCell id="r0m9Uo_pUaAPdZbnrWWi-29" style="edgeStyle=orthogonalEdgeStyle;rounded=0;orthogonalLoop=1;jettySize=auto;html=1;" edge="1" parent="WIyWlLk6GJQsqaUBKTNV-1" source="r0m9Uo_pUaAPdZbnrWWi-28" target="r0m9Uo_pUaAPdZbnrWWi-30">
          <mxGeometry relative="1" as="geometry">
            <mxPoint x="610" y="399.9999999999999" as="targetPoint" />
          </mxGeometry>
        </mxCell>
        <mxCell id="r0m9Uo_pUaAPdZbnrWWi-28" value="Guardo un film&amp;nbsp;" style="rounded=1;whiteSpace=wrap;html=1;" vertex="1" parent="WIyWlLk6GJQsqaUBKTNV-1">
          <mxGeometry x="550" y="270" width="120" height="60" as="geometry" />
        </mxCell>
        <mxCell id="r0m9Uo_pUaAPdZbnrWWi-31" style="edgeStyle=orthogonalEdgeStyle;rounded=0;orthogonalLoop=1;jettySize=auto;html=1;" edge="1" parent="WIyWlLk6GJQsqaUBKTNV-1" source="r0m9Uo_pUaAPdZbnrWWi-30">
          <mxGeometry relative="1" as="geometry">
            <mxPoint x="730" y="510" as="targetPoint" />
          </mxGeometry>
        </mxCell>
        <mxCell id="r0m9Uo_pUaAPdZbnrWWi-32" style="edgeStyle=orthogonalEdgeStyle;rounded=0;orthogonalLoop=1;jettySize=auto;html=1;" edge="1" parent="WIyWlLk6GJQsqaUBKTNV-1" source="r0m9Uo_pUaAPdZbnrWWi-30">
          <mxGeometry relative="1" as="geometry">
            <mxPoint x="520" y="510" as="targetPoint" />
          </mxGeometry>
        </mxCell>
        <mxCell id="r0m9Uo_pUaAPdZbnrWWi-30" value="Sono stanco?" style="rhombus;whiteSpace=wrap;html=1;" vertex="1" parent="WIyWlLk6GJQsqaUBKTNV-1">
          <mxGeometry x="550" y="370" width="120" height="80" as="geometry" />
        </mxCell>
        <mxCell id="r0m9Uo_pUaAPdZbnrWWi-35" value="No" style="text;html=1;strokeColor=none;fillColor=none;align=center;verticalAlign=middle;whiteSpace=wrap;rounded=0;" vertex="1" parent="WIyWlLk6GJQsqaUBKTNV-1">
          <mxGeometry x="670" y="380" width="60" height="30" as="geometry" />
        </mxCell>
        <mxCell id="r0m9Uo_pUaAPdZbnrWWi-36" value="Si" style="text;html=1;strokeColor=none;fillColor=none;align=center;verticalAlign=middle;whiteSpace=wrap;rounded=0;" vertex="1" parent="WIyWlLk6GJQsqaUBKTNV-1">
          <mxGeometry x="500" y="380" width="60" height="30" as="geometry" />
        </mxCell>
        <mxCell id="r0m9Uo_pUaAPdZbnrWWi-37" value="Guardo un&amp;nbsp;&lt;br&gt;film breve" style="rounded=1;whiteSpace=wrap;html=1;" vertex="1" parent="WIyWlLk6GJQsqaUBKTNV-1">
          <mxGeometry x="470" y="520" width="120" height="60" as="geometry" />
        </mxCell>
        <mxCell id="r0m9Uo_pUaAPdZbnrWWi-41" value="Guardo un&amp;nbsp;&lt;br&gt;film lungo" style="rounded=1;whiteSpace=wrap;html=1;" vertex="1" parent="WIyWlLk6GJQsqaUBKTNV-1">
          <mxGeometry x="660" y="520" width="120" height="60" as="geometry" />
        </mxCell>
      </root>
    </mxGraphModel>
  </diagram>
</mxfile>
